<mxfile host="app.diagrams.net" modified="2022-05-19T21:35:10.946Z" agent="5.0 (Windows NT 10.0; Win64; x64) AppleWebKit/537.36 (KHTML, like Gecko) Chrome/101.0.4951.67 Safari/537.36" etag="3wCUZ9b_AeiDo2nwpdfr" version="18.0.3" type="github">
  <diagram id="Q1RZIhtmc51XfOOHAW5l" name="Page-1">
    <mxGraphModel dx="1182" dy="732" grid="1" gridSize="10" guides="1" tooltips="1" connect="1" arrows="1" fold="1" page="1" pageScale="1" pageWidth="850" pageHeight="1100" math="0" shadow="0">
      <root>
        <mxCell id="0" />
        <mxCell id="1" parent="0" />
        <mxCell id="lerpAwy_qH4C8VLxMZUG-1" value="" style="whiteSpace=wrap;html=1;aspect=fixed;" vertex="1" parent="1">
          <mxGeometry x="85" y="100" width="860" height="860" as="geometry" />
        </mxCell>
        <mxCell id="lerpAwy_qH4C8VLxMZUG-6" value="" style="line;strokeWidth=2;html=1;" vertex="1" parent="1">
          <mxGeometry x="85" y="240" width="860" height="10" as="geometry" />
        </mxCell>
        <mxCell id="lerpAwy_qH4C8VLxMZUG-9" value="" style="rounded=0;whiteSpace=wrap;html=1;" vertex="1" parent="1">
          <mxGeometry x="105" y="320" width="555" height="220" as="geometry" />
        </mxCell>
        <mxCell id="lerpAwy_qH4C8VLxMZUG-10" value="" style="whiteSpace=wrap;html=1;aspect=fixed;" vertex="1" parent="1">
          <mxGeometry x="110" y="600" width="170" height="170" as="geometry" />
        </mxCell>
        <mxCell id="lerpAwy_qH4C8VLxMZUG-11" value="" style="rounded=0;whiteSpace=wrap;html=1;" vertex="1" parent="1">
          <mxGeometry x="100" y="810" width="230" height="60" as="geometry" />
        </mxCell>
        <mxCell id="lerpAwy_qH4C8VLxMZUG-14" value="" style="rounded=0;whiteSpace=wrap;html=1;" vertex="1" parent="1">
          <mxGeometry x="110" y="250" width="260" height="60" as="geometry" />
        </mxCell>
        <mxCell id="lerpAwy_qH4C8VLxMZUG-15" value="Text" style="text;html=1;strokeColor=none;fillColor=none;align=center;verticalAlign=middle;whiteSpace=wrap;rounded=0;" vertex="1" parent="1">
          <mxGeometry x="130" y="270" width="220" height="30" as="geometry" />
        </mxCell>
      </root>
    </mxGraphModel>
  </diagram>
</mxfile>
